<svg xmlns="http://www.w3.org/2000/svg" version="1.1" xmlns:xlink="http://www.w3.org/1999/xlink" xmlns:svgjs="http://svgjs.dev/svgjs" viewBox="0 0 800 800"><defs><linearGradient x1="50%" y1="0%" x2="50%" y2="100%" id="ccchaos-grad"><stop stop-color="hsl(206, 75%, 49%)" stop-opacity="1" offset="0%"></stop><stop stop-color="hsl(331, 90%, 56%)" stop-opacity="1" offset="100%"></stop></linearGradient></defs><g stroke-width="2" stroke="url(#ccchaos-grad)" fill="none" stroke-linecap="round"><path d="M111.95 100.35Q120.75 101.11 129.54 102.14 138.34 103.43 147.14 104.95 155.94 106.65 164.74 108.52 173.54 110.5 182.34 112.56 191.14 114.65 199.94 116.72 208.74 118.74 217.54 120.66 226.34 122.43 235.14 124.02 243.94 125.4 252.74 126.53 261.54 127.39 270.34 127.97 279.13 128.24 287.93 128.22 296.73 127.88 305.53 127.25 314.33 126.34 323.13 125.16 331.93 123.74 340.73 122.11 349.53 120.31 358.33 118.38 367.13 116.34 375.93 114.26 384.73 112.18 393.53 110.13 402.33 108.16 411.13 106.33 419.92 104.65 428.72 103.17 437.52 101.93 446.32 100.95 455.12 100.24 463.92 99.83 472.72 99.72 481.52 99.92 490.32 100.42 499.12 101.21 507.92 102.28 516.72 103.6 525.52 105.13 534.32 106.86 543.12 108.74 551.92 110.74 560.72 112.8 569.51 114.89 578.31 116.96 587.11 118.97 595.91 120.87 604.71 122.62 613.51 124.19 622.31 125.54 631.11 126.64 639.91 127.47 648.71 128.02 657.51 128.26 666.31 128.19 675.11 127.83 683.42 137.09 691.85 146.35 700 155.61 707.45 164.87 713.83 174.14 718.83 183.4 722.19 192.66 723.76 201.92 723.45 211.18 721.28 220.45 717.35 229.71 711.86 238.97 705.09 248.23 697.37 257.5 689.08 266.76 680.64 276.02 672.47 285.28 664.97 294.54 658.51 303.81 653.42 313.07 649.95 322.33 648.27 331.59 648.47 340.86 650.53 350.12 654.36 359.38 659.76 368.64 666.46 377.9 674.13 387.17 682.4 396.43 690.84 405.69 699.04 414.95 706.6 424.22 713.13 433.48 718.31 442.74 721.88 452 723.67 461.26 723.59 470.53 721.64 479.79 717.91 489.05 712.6 498.31 705.97 507.58 698.34 516.84 690.1 526.1 681.65 535.36 673.43 544.62 665.82 553.89 659.22 563.15 653.95 572.41 650.27 581.67 648.37 590.94 648.34 600.2 650.19 609.46 653.81 618.72 659.03 627.98 665.59 637.25 673.17 646.51 681.39 655.77 689.83 665.03 698.08 674.3 705.74 683.56 712.41 692.82 717.76 702.08 717.84 716.44 704.73 721.69 695.31 721.08 685.9 719.73 676.48 717.65 667.07 714.89 657.66 711.51 648.24 707.59 638.83 703.2 629.41 698.44 620 693.42 610.59 688.24 601.17 683.01 591.76 677.85 582.35 672.86 572.93 668.15 563.52 663.82 554.1 659.97 544.69 656.67 535.28 654.01 525.86 652.03 516.45 650.78 507.03 650.28 497.62 650.55 488.21 651.57 478.79 653.34 469.38 655.8 459.96 658.92 450.55 662.61 441.14 666.8 431.72 671.4 422.31 676.32 412.89 681.45 403.48 686.67 394.07 691.88 384.65 696.96 375.24 701.8 365.83 706.31 356.41 710.38 347 713.93 337.58 716.88 328.17 719.17 318.76 720.75 309.34 721.59 299.93 721.66 290.51 720.96 281.1 719.52 271.69 717.36 262.27 714.53 252.86 711.08 243.44 707.1 234.03 702.66 224.62 697.87 215.2 692.83 205.79 687.63 196.37 682.41 186.96 677.26 177.55 672.29 168.13 667.62 158.72 663.35 149.31 659.56 139.89 656.33 125.58 648.49 119.97 634.61 117.62 617.38 114.72 600.14 111.64 582.91 108.92 565.67 107.42 548.44 106.91 531.21 108.11 513.97 110.2 496.74 111.63 488.12 113.18 479.5 116.26 462.27 119 445.03 120.54 427.8 121.09 410.57 119.93 393.33 117.87 376.1 116.45 367.48 114.91 358.86 111.82 341.63 109.06 324.39 107.49 307.16 106.9 289.93 108.02 272.69 110.04 255.46 111.45 246.84 112.99 238.22 116.08 220.99 118.86 203.75 120.47 186.52 121.1 169.29 120.02 152.05 118.03 134.82 116.63 126.2 115.1 117.58 113.51 108.97 111.95 100.35" stroke-dasharray="3 10" transform="rotate(0, 400, 400)" opacity="0.31"></path><path d="M124.87 111.96Q142.04 114.35 159.21 117.58 176.38 121.4 193.56 125.5 210.73 129.56 227.9 133.27 245.07 136.31 262.24 138.47 279.42 139.56 296.59 139.51 313.76 138.31 330.93 136.06 348.11 132.93 365.28 129.19 382.45 125.11 399.62 121.02 416.79 117.24 433.97 114.08 451.14 111.78 468.31 110.52 485.48 110.4 502.65 111.43 519.83 113.54 537 116.54 554.17 120.21 571.34 124.26 588.52 128.37 605.69 132.21 622.86 135.49 640.03 137.93 657.2 139.35 674.38 139.65 689.96 157.48 702.83 175.31 710.63 193.14 711.96 210.97 706.56 228.8 695.43 246.63 680.58 264.46 664.72 282.29 650.72 300.12 641.14 317.95 637.71 335.78 641.07 353.61 650.59 371.44 664.54 389.27 680.4 407.1 695.28 424.93 706.46 442.76 711.93 460.59 710.68 478.43 702.95 496.26 690.13 514.09 674.56 531.92 659.07 549.75 646.47 567.58 639.06 585.41 638.19 603.24 644 621.07 655.45 638.9 670.46 656.73 686.28 674.56 695.65 700.95 673.2 706.09 655.17 700.22 637.13 692.35 619.09 683.11 601.06 673.24 583.02 663.5 564.98 654.67 546.95 647.44 528.91 642.39 510.87 639.9 492.83 640.19 474.8 643.22 456.76 648.75 438.72 656.36 420.69 665.43 402.65 675.26 384.61 685.07 366.57 694.08 348.54 701.59 330.5 707 312.46 709.89 294.43 710.02 276.39 707.39 258.35 702.21 240.32 694.88 222.28 685.98 204.24 676.22 186.2 666.36 168.17 657.18 150.13 649.4 132.09 643.65 130.18 627.03 127.33 610.42 124.06 593.8 120.95 577.19 118.58 560.57 117.37 543.95 117.56 527.34 119.09 510.72 121.7 494.11 124.9 477.49 128.13 460.88 130.78 444.26 132.38 427.65 132.64 411.03 131.51 394.42 129.19 377.8 126.11 361.19 122.83 344.57 119.94 327.96 117.97 311.34 117.28 294.72 117.99 278.11 119.97 261.49 122.87 244.88 126.15 228.26 129.23 211.65 131.53 195.03 132.65 178.42 132.37 161.8 130.76 145.19 128.09 128.57 124.87 111.96" stroke-dasharray="3 5" transform="rotate(4.04, 400, 400)" opacity="0.50"></path><path d="M138.12 124.05Q154.85 126.96 171.57 130.52 188.3 134.48 205.03 138.55 221.75 142.43 238.48 145.85 255.2 148.55 271.93 150.33 288.66 151.08 305.38 150.72 322.11 149.3 338.84 146.91 355.56 143.72 372.29 139.98 389.02 135.94 405.74 131.91 422.47 128.17 439.2 125 455.92 122.64 472.65 121.24 489.38 120.92 506.1 121.69 522.83 123.51 539.56 126.23 556.28 129.66 573.01 133.55 589.74 137.62 606.46 141.57 623.19 145.12 639.92 148 656.64 150.01 673.37 151 686.81 168.12 696.41 185.23 700.58 202.35 698.61 219.46 690.84 236.58 678.56 253.69 663.84 270.81 649.14 287.92 636.94 305.04 629.27 322.15 627.43 339.27 631.73 356.38 641.43 373.5 654.93 390.61 669.94 407.73 683.96 424.84 694.62 441.96 700.15 459.07 699.62 476.19 693.1 493.3 681.71 510.42 667.34 527.53 652.41 544.65 639.43 561.76 630.56 578.88 627.31 595.99 630.21 613.11 638.77 630.22 651.57 647.34 666.45 664.45 678.14 688.98 658.17 691.75 640.98 685.09 623.79 676.89 606.6 667.76 589.41 658.35 572.22 649.35 555.03 641.42 537.84 635.13 520.65 630.94 503.46 629.15 486.27 629.9 469.08 633.12 451.89 638.59 434.7 645.91 417.51 654.55 400.32 663.87 383.13 673.2 365.94 681.86 348.75 689.22 331.56 694.75 314.37 698.04 297.18 698.85 279.99 697.13 262.8 693.01 245.6 686.77 228.41 678.87 211.22 669.9 194.03 660.49 176.84 651.34 159.65 643.11 142.46 636.4 139.83 620.39 136.55 604.38 133.18 588.36 130.28 572.35 128.34 556.34 127.69 540.33 128.42 524.32 130.43 508.31 133.37 492.3 136.75 476.29 140.01 460.28 142.59 444.27 144.06 428.26 144.18 412.25 142.93 396.24 140.52 380.23 137.34 364.21 133.94 348.2 130.89 332.19 128.69 316.18 127.71 300.17 128.13 284.16 129.87 268.15 132.63 252.14 135.96 236.13 139.29 220.12 142.07 204.11 143.84 188.1 144.28 172.09 143.34 156.08 141.16 140.06 138.12 124.05" stroke-dasharray="4 2" transform="rotate(8.08, 400, 400)" opacity="0.59"></path><path d="M151.52 136.63Q167.77 139.93 184.01 143.71 200.26 147.71 216.5 151.66 232.74 155.29 248.99 158.37 265.23 160.7 281.48 162.1 297.72 162.5 313.97 161.86 330.21 160.23 346.46 157.71 362.7 154.48 378.95 150.75 395.19 146.76 411.44 142.79 427.68 139.11 443.92 135.95 460.17 133.52 476.41 132 492.66 131.48 508.9 132 525.15 133.52 541.39 135.94 557.64 139.09 573.88 142.78 590.13 146.75 606.37 150.73 622.62 154.47 638.86 157.7 655.11 160.22 671.35 161.86 681.9 178.24 688 194.62 688.7 211 683.89 227.38 674.31 243.76 661.45 260.14 647.28 276.52 633.99 292.9 623.64 309.28 617.81 325.66 617.41 342.04 622.5 358.42 632.29 374.8 645.28 391.19 659.45 407.57 672.63 423.95 682.78 440.33 688.34 456.71 688.44 473.09 683.08 489.47 673.07 505.85 659.97 522.23 645.79 538.61 632.73 554.99 622.79 571.37 617.51 587.75 617.7 604.13 623.34 620.51 633.55 636.89 646.76 653.27 659.26 676.03 641.27 676.8 624.97 669.6 608.67 661.3 592.36 652.44 576.06 643.62 559.75 635.43 543.45 628.41 527.14 623.03 510.84 619.66 494.54 618.51 478.23 619.66 461.93 623.05 445.62 628.43 429.32 635.46 413.01 643.66 396.71 652.48 380.41 661.34 364.1 669.63 347.8 676.82 331.49 682.42 315.19 686.05 298.88 687.47 282.58 686.58 266.28 683.46 249.97 678.29 233.67 671.44 217.36 663.36 201.06 654.58 184.75 645.69 168.45 637.3 152.15 629.95 148.95 614.53 145.46 599.12 142.2 583.7 139.68 568.29 138.29 552.87 138.24 537.45 139.55 522.04 142 506.62 145.22 491.2 148.72 475.79 151.95 460.37 154.41 444.96 155.74 429.54 155.71 414.12 154.34 398.71 151.84 383.29 148.59 367.87 145.09 352.46 141.89 337.04 139.48 321.63 138.22 306.21 138.32 290.79 139.76 275.38 142.31 259.96 145.59 244.54 149.08 229.13 152.25 213.71 154.61 198.3 155.8 182.88 155.63 167.46 154.12 152.05 151.52 136.63" stroke-dasharray="7 8" transform="rotate(12.12, 400, 400)" opacity="0.36"></path><path d="M164.86 149.65Q180.57 153.24 196.29 157.11 212 161.04 227.71 164.78 243.42 168.11 259.14 170.82 274.85 172.74 290.56 173.77 306.28 173.82 321.99 172.91 337.7 171.09 353.42 168.47 369.13 165.2 384.84 161.5 400.55 157.58 416.27 153.68 431.98 150.05 447.69 146.91 463.41 144.44 479.12 142.8 494.83 142.1 510.54 142.36 526.26 143.58 541.97 145.68 557.68 148.54 573.4 151.97 589.11 155.77 604.82 159.71 620.53 163.54 636.25 167.04 651.96 169.98 667.67 172.19 674.91 187.82 677.5 203.45 675.07 219.08 667.97 234.71 657.2 250.34 644.28 265.97 631.04 281.6 619.34 297.23 610.85 312.86 606.75 328.49 607.64 344.12 613.38 359.75 623.16 375.38 635.6 391.01 648.95 406.64 661.31 422.27 670.95 437.9 676.49 453.53 677.16 469.16 672.86 484.79 664.2 500.43 652.41 516.06 639.14 531.69 626.28 547.32 615.63 562.95 608.71 578.58 606.5 594.21 609.3 609.84 616.71 625.47 627.7 641.1 639.61 662.18 623.11 661.35 607.71 653.87 592.31 645.67 576.92 637.24 561.52 629.11 546.12 621.76 530.72 615.65 515.33 611.15 499.93 608.54 484.53 607.98 469.13 609.49 453.73 612.99 438.34 618.27 422.94 625 407.54 632.77 392.14 641.1 376.75 649.49 361.35 657.42 345.95 664.4 330.55 670.02 315.16 673.92 299.76 675.87 284.36 675.74 268.96 673.56 253.56 669.44 238.17 663.64 222.77 656.52 207.37 648.51 191.97 640.1 176.58 631.81 161.18 624.14 157.65 609.32 154.17 594.49 151.24 579.66 149.25 564.83 148.5 550 149.1 535.18 150.95 520.35 153.79 505.52 157.23 490.69 160.78 475.86 163.93 461.04 166.25 446.21 167.4 431.38 167.22 416.55 165.73 401.73 163.16 386.9 159.85 372.07 156.29 357.24 152.96 342.41 150.34 327.59 148.81 312.76 148.57 297.93 149.67 283.1 151.94 268.27 155.07 253.45 158.61 238.62 162.06 223.79 164.94 208.96 166.84 194.14 167.49 179.31 166.8 164.48 164.86 149.65" stroke-dasharray="8 4" transform="rotate(16.16, 400, 400)" opacity="0.79"></path><path d="M177.9 163.07Q193.03 166.81 208.15 170.66 223.27 174.43 238.4 177.89 253.52 180.85 268.64 183.16 283.77 184.67 298.89 185.31 314.01 185.04 329.14 183.88 344.26 181.89 359.38 179.17 374.51 175.89 389.63 172.23 404.75 168.38 419.88 164.57 435 161.01 450.12 157.89 465.24 155.39 480.37 153.65 495.49 152.76 510.61 152.78 525.74 153.71 540.86 155.48 555.98 158.01 571.11 161.15 586.23 164.73 601.35 168.55 616.48 172.39 631.6 176.04 646.72 179.3 661.85 181.99 665.63 196.86 664.96 211.72 659.9 226.59 651.12 241.46 639.75 256.33 627.25 271.2 615.23 286.06 605.25 300.93 598.58 315.8 596.09 330.67 598.09 345.54 604.34 360.4 614.02 375.27 625.89 390.14 638.42 405.01 649.99 419.88 659.11 434.75 664.61 449.61 665.78 464.48 662.46 479.35 655.09 494.22 644.62 509.09 632.38 523.95 619.97 538.82 608.98 553.69 600.83 568.56 596.56 583.43 596.73 598.29 601.32 613.16 609.73 628.03 604.86 642.78 575.38 630.08 560.89 622.21 546.4 614.84 531.91 608.36 517.42 603.15 502.93 599.49 488.44 597.59 473.95 597.55 459.46 599.37 444.97 602.96 430.48 608.11 415.99 614.54 401.5 621.88 387.01 629.73 372.52 637.66 358.03 645.21 343.54 651.97 329.05 657.56 314.57 661.66 300.08 664.06 285.59 664.62 271.1 663.3 256.61 660.18 242.12 655.43 227.63 649.32 213.14 642.19 198.65 634.43 184.16 626.48 169.67 618.79 166.07 604.55 162.85 590.31 160.42 576.06 159.1 561.82 159.05 547.58 160.28 533.34 162.64 519.1 165.81 504.86 169.4 490.62 172.93 476.38 175.95 462.13 178.08 447.89 179.04 433.65 178.7 419.41 177.12 405.17 174.48 390.93 171.14 376.69 167.52 362.45 164.09 348.21 161.3 333.96 159.49 319.72 158.91 305.48 159.63 291.24 161.56 277 164.44 262.76 167.91 248.52 171.52 234.28 174.81 220.03 177.34 205.79 178.8 191.55 179 177.31 177.9 163.07" stroke-dasharray="11 7" transform="rotate(20.200000000000003, 400, 400)" opacity="0.38"></path><path d="M190.43 176.82Q204.9 180.58 219.38 184.3 233.85 187.81 248.32 190.92 262.79 193.48 277.26 195.36 291.74 196.46 306.21 196.73 320.68 196.15 335.15 194.75 349.63 192.61 364.1 189.83 378.57 186.55 393.04 182.94 407.52 179.18 421.99 175.46 436.46 171.97 450.93 168.89 465.41 166.37 479.88 164.53 494.35 163.49 508.82 163.27 523.3 163.9 537.77 165.35 552.24 167.54 566.71 170.35 581.19 173.66 595.66 177.29 610.13 181.05 624.6 184.76 639.08 188.23 653.55 191.28 654.02 205.38 650.52 219.47 643.44 233.57 633.62 247.67 622.21 261.77 610.53 275.86 599.97 289.96 591.74 304.06 586.83 318.16 585.79 332.25 588.76 346.35 595.38 360.45 604.88 374.54 616.15 388.64 627.87 402.74 638.67 416.84 647.28 430.93 652.7 445.03 654.3 459.13 651.88 473.23 645.73 487.32 636.57 501.42 625.47 515.52 613.73 529.62 602.72 543.71 593.73 557.81 587.82 571.91 585.67 586 587.54 600.1 593.2 614.2 586.39 627.2 558.52 614.62 544.92 607.42 531.32 600.86 517.73 595.26 504.13 590.92 490.53 588.05 476.93 586.8 463.34 587.22 449.74 589.3 436.14 592.94 422.54 597.95 408.95 604.07 395.35 610.99 381.75 618.37 368.15 625.84 354.56 633.01 340.96 639.52 327.36 645.04 313.77 649.29 300.17 652.07 286.57 653.22 272.97 652.69 259.38 650.5 245.78 646.77 232.18 641.69 218.58 635.51 204.99 628.54 191.39 621.15 177.79 613.69 174.4 600.04 171.66 586.39 169.9 572.73 169.32 559.08 169.99 545.43 171.83 531.78 174.62 518.12 178.05 504.47 181.7 490.82 185.15 477.17 188 463.52 189.91 449.86 190.66 436.21 190.17 422.56 188.48 408.91 185.8 395.25 182.44 381.6 178.8 367.95 175.29 354.3 172.34 340.65 170.28 326.99 169.36 313.34 169.68 299.69 171.21 286.04 173.77 272.38 177.05 258.73 180.68 245.08 184.23 231.43 187.29 217.78 189.49 204.12 190.58 190.47 190.43 176.82" stroke-dasharray="4 9" transform="rotate(24.24, 400, 400)" opacity="0.31"></path><path d="M202.24 190.82Q216 194.47 229.77 197.96 243.53 201.13 257.29 203.84 271.06 205.97 284.82 207.41 298.58 208.1 312.35 208.01 326.11 207.14 339.87 205.53 353.63 203.26 367.4 200.43 381.16 197.17 394.92 193.63 408.69 189.96 422.45 186.35 436.21 182.94 449.98 179.91 463.74 177.38 477.5 175.47 491.27 174.27 505.03 173.83 518.79 174.18 532.56 175.3 546.32 177.13 560.08 179.6 573.85 182.59 587.61 185.96 601.37 189.56 615.14 193.23 628.9 196.79 642.66 200.09 640.21 213.42 634.45 226.74 626 240.06 615.76 253.38 604.8 266.71 594.29 280.03 585.32 293.35 578.87 306.67 575.59 319.99 575.85 333.32 579.61 346.64 586.47 359.96 595.72 373.28 606.37 386.61 617.3 399.93 627.35 413.25 635.46 426.57 640.77 439.89 642.72 453.22 641.11 466.54 636.11 479.86 628.24 493.18 618.33 506.51 607.44 519.83 596.71 533.15 587.28 546.47 580.15 559.79 576.06 573.12 575.46 586.44 578.4 599.76 582.58 616.59 567.86 613.27 555.12 606.25 542.38 599.36 529.65 592.91 516.91 587.19 504.17 582.47 491.44 578.96 478.7 576.83 465.96 576.16 453.23 576.99 440.49 579.29 427.76 582.94 415.02 587.78 402.28 593.59 389.55 600.1 376.81 607.02 364.07 614.03 351.34 620.82 338.6 627.06 325.86 632.47 313.13 636.81 300.39 639.89 287.65 641.55 274.92 641.72 262.18 640.4 249.45 637.65 236.71 633.58 223.97 628.39 211.24 622.32 198.5 615.64 185.76 608.65 182.84 595.59 180.78 582.54 179.79 569.48 180 556.42 181.36 543.37 183.74 530.31 186.89 517.25 190.48 504.19 194.11 491.14 197.42 478.08 200.05 465.02 201.72 451.96 202.26 438.91 201.61 425.85 199.83 412.79 197.12 399.73 193.77 386.68 190.12 373.62 186.56 360.56 183.47 347.5 181.18 334.45 179.92 321.39 179.84 308.33 180.93 295.27 183.09 282.22 186.08 269.16 189.59 256.1 193.25 243.05 196.68 229.99 199.5 216.93 201.42 203.87 202.24 190.82" stroke-dasharray="8 2" transform="rotate(28.28, 400, 400)" opacity="0.09"></path><path d="M213.18 204.97Q226.19 208.4 239.19 211.56 252.19 214.34 265.19 216.6 278.2 218.27 291.2 219.27 304.2 219.57 317.2 219.14 330.21 218.01 343.21 216.22 356.21 213.85 369.21 210.99 382.22 207.76 395.22 204.3 408.22 200.74 421.22 197.24 434.23 193.93 447.23 190.94 460.23 188.42 473.24 186.45 486.24 185.12 499.24 184.48 512.24 184.55 525.25 185.35 538.25 186.82 551.25 188.92 564.25 191.56 577.26 194.62 590.26 197.99 603.26 201.52 620.35 213.05 617.1 233.58 607.95 246.13 597.85 258.68 587.77 271.22 578.66 283.77 571.38 296.31 566.63 308.86 564.86 321.41 566.23 333.95 570.63 346.5 577.62 359.05 586.54 371.59 596.55 384.14 606.7 396.69 616.03 409.23 623.64 421.78 628.81 434.33 631.06 446.87 630.17 459.42 626.23 471.97 619.6 484.51 610.92 497.06 601.02 509.61 590.83 522.15 581.32 534.7 573.39 547.24 567.8 559.79 565.07 572.34 565.47 584.88 566.13 600.55 551.38 597.11 539.46 590.6 527.54 584.39 515.62 578.74 503.7 573.88 491.79 570.01 479.87 567.28 467.95 565.82 456.03 565.67 444.12 566.85 432.2 569.31 420.28 572.95 408.36 577.61 396.45 583.11 384.53 589.22 372.61 595.68 360.69 602.25 348.77 608.64 336.86 614.59 324.94 619.86 313.02 624.24 301.1 627.54 289.19 629.62 277.27 630.41 265.35 629.87 253.43 628.03 241.51 624.95 229.6 620.76 217.68 615.65 205.76 609.8 193.84 603.48 191.61 591.02 190.36 578.57 190.22 566.12 191.19 553.66 193.19 541.21 196.03 528.76 199.43 516.3 203.08 503.85 206.62 491.4 209.73 478.94 212.1 466.49 213.51 454.04 213.83 441.58 213.02 429.13 211.17 416.68 208.45 404.22 205.11 391.77 201.48 379.31 197.9 366.86 194.7 354.41 192.2 341.95 190.63 329.5 190.14 317.05 190.77 304.59 192.47 292.14 195.08 279.69 198.34 267.23 201.94 254.78 205.56 242.33 208.83 229.87 211.46 217.42 213.18 204.97" stroke-dasharray="7 10" transform="rotate(32.32, 400, 400)" opacity="0.44"></path><path d="M223.18 219.17Q235.38 222.27 247.58 225.04 259.78 227.36 271.99 229.16 284.19 230.37 296.39 230.94 308.59 230.85 320.79 230.11 332.99 228.75 345.19 226.81 357.4 224.36 369.6 221.5 381.8 218.32 394 214.95 406.2 211.51 418.4 208.12 430.6 204.92 442.81 202 455.01 199.49 467.21 197.48 479.41 196.03 491.61 195.2 503.81 195.03 516.02 195.51 528.22 196.63 540.42 198.35 552.62 200.61 564.82 203.32 577.02 206.38 589.22 209.69 604.27 220.71 598.88 240.08 589.65 251.86 580.19 263.63 571.31 275.41 563.76 287.18 558.18 298.95 555.04 310.73 554.61 322.5 556.92 334.27 561.79 346.05 568.79 357.82 577.33 369.6 586.7 381.37 596.09 393.14 604.7 404.92 611.82 416.69 616.83 428.46 619.32 440.24 619.06 452.01 616.08 463.79 610.64 475.56 603.2 487.33 594.38 499.11 584.94 510.88 575.67 522.65 567.36 534.43 560.71 546.2 556.29 557.98 554.48 569.75 551.66 584.36 536.74 581.11 525.6 575.22 514.45 569.77 503.3 564.95 492.15 560.93 481 557.87 469.86 555.87 458.71 555.01 447.56 555.33 436.41 556.8 425.26 559.38 414.12 562.97 402.97 567.43 391.82 572.62 380.67 578.33 369.52 584.35 358.38 590.48 347.23 596.47 336.08 602.12 324.93 607.22 313.78 611.57 302.64 615.03 291.49 617.46 280.34 618.77 269.19 618.93 258.04 617.91 246.9 615.76 235.75 612.56 224.6 608.42 213.45 603.5 202.3 597.98 200.92 586.14 200.56 574.3 201.25 562.46 202.94 550.63 205.48 538.79 208.66 526.95 212.21 515.11 215.82 503.28 219.19 491.44 222.04 479.6 224.12 467.76 225.26 455.92 225.36 444.09 224.41 432.25 222.49 420.41 219.77 408.57 216.47 396.73 212.88 384.9 209.3 373.06 206.03 361.22 203.36 349.38 201.49 337.55 200.61 325.71 200.77 313.87 201.97 302.03 204.11 290.19 207 278.36 210.39 266.52 214.01 254.68 217.54 242.84 220.69 231 223.18 219.17" stroke-dasharray="5 1" transform="rotate(36.36, 400, 400)" opacity="0.94"></path><path d="M232.23 233.31Q243.6 236 254.97 238.31 266.35 240.15 277.72 241.47 289.09 242.22 300.47 242.38 311.84 241.94 323.21 240.93 334.59 239.36 345.96 237.29 357.33 234.8 368.71 231.95 380.08 228.85 391.45 225.58 402.83 222.27 414.2 219.01 425.57 215.92 436.94 213.08 448.32 210.6 459.69 208.56 471.06 207.01 482.44 206.02 493.81 205.61 505.18 205.79 516.56 206.57 527.93 207.91 539.3 209.77 550.68 212.09 562.05 214.8 573.42 217.81 586.74 228.17 580.24 246.34 571.48 257.35 563.06 268.35 555.61 279.36 549.69 290.37 545.75 301.37 544.08 312.38 544.81 323.39 547.89 334.4 553.07 345.4 559.98 356.41 568.09 367.42 576.8 378.43 585.45 389.43 593.38 400.44 600.01 411.45 604.83 422.46 607.49 433.46 607.78 444.47 605.68 455.48 601.35 466.49 595.12 477.49 587.44 488.5 578.91 499.51 570.16 510.51 561.85 521.52 554.6 532.53 548.95 543.54 545.34 554.54 539.37 568.22 524.27 565.37 513.85 560.21 503.42 555.55 492.99 551.56 482.56 548.37 472.13 546.06 461.7 544.73 451.27 544.41 440.84 545.12 430.41 546.83 419.98 549.48 409.55 553 399.13 557.25 388.7 562.12 378.27 567.44 367.84 573.03 357.41 578.72 346.98 584.33 336.55 589.66 326.12 594.55 315.69 598.83 305.26 602.38 294.84 605.07 284.41 606.82 273.98 607.57 263.55 607.29 253.12 606 242.69 603.74 232.26 600.57 221.83 596.61 211.4 591.98 210.96 580.78 211.49 569.57 212.96 558.36 215.26 547.15 218.22 535.94 221.61 524.73 225.18 513.52 228.67 502.31 231.8 491.11 234.34 479.9 236.11 468.69 236.96 457.48 236.85 446.27 235.76 435.06 233.79 423.85 231.09 412.64 227.85 401.44 224.32 390.23 220.77 379.02 217.46 367.81 214.64 356.6 212.53 345.39 211.27 334.18 210.97 322.98 211.65 311.77 213.26 300.56 215.68 289.35 218.72 278.14 222.15 266.93 225.73 255.72 229.17 244.51 232.23 233.31" stroke-dasharray="10 8" transform="rotate(40.400000000000006, 400, 400)" opacity="0.85"></path><path d="M240.41 247.27Q250.94 249.49 261.47 251.3 272 252.65 282.54 253.49 293.07 253.81 303.6 253.58 314.13 252.83 324.67 251.57 335.2 249.84 345.73 247.68 356.26 245.16 366.8 242.36 377.33 239.34 387.86 236.2 398.39 233.02 408.93 229.9 419.46 226.93 429.99 224.18 440.52 221.75 451.06 219.69 461.59 218.07 472.12 216.93 482.65 216.3 493.19 216.21 503.72 216.66 514.25 217.62 524.78 219.09 535.32 221 545.85 223.32 556.38 225.97 568.3 235.54 561.63 252.45 553.79 262.7 546.69 272.95 540.8 283.2 536.51 293.45 534.1 303.7 533.74 313.95 535.44 324.2 539.09 334.45 544.46 344.7 551.18 354.95 558.82 365.2 566.86 375.45 574.79 385.7 582.06 395.95 588.21 406.2 592.82 416.45 595.59 426.7 596.34 436.95 595.02 447.2 591.72 457.45 586.64 467.7 580.14 477.95 572.64 488.2 564.63 498.45 556.64 508.7 549.21 518.95 542.82 529.2 537.89 539.45 529.32 552.27 514.11 550.03 504.35 545.64 494.6 541.8 484.84 538.62 475.08 536.2 465.32 534.59 455.56 533.86 445.8 534.01 436.05 535.04 426.29 536.93 416.53 539.62 406.77 543.03 397.01 547.07 387.25 551.62 377.5 556.55 367.74 561.72 357.98 566.99 348.22 572.2 338.46 577.2 328.71 581.85 318.95 586.03 309.19 589.6 299.43 592.48 289.67 594.57 279.91 595.81 270.16 596.18 260.4 595.66 250.64 594.26 240.88 592.03 226.49 581.91 223.22 564.21 225.36 553.65 228.13 543.09 231.36 532.52 234.83 521.96 238.32 511.39 241.58 500.83 244.4 490.26 246.61 479.7 248.04 469.13 248.62 458.57 248.29 448 247.09 437.44 245.08 426.87 242.41 416.31 239.25 405.74 235.81 395.18 232.31 384.61 228.99 374.05 226.07 363.48 223.74 352.92 222.15 342.35 221.41 331.79 221.57 321.22 222.62 310.66 224.48 300.09 227.04 289.53 230.13 278.96 233.53 268.4 237.04 257.83 240.41 247.27" stroke-dasharray="9 3" transform="rotate(44.44, 400, 400)" opacity="0.29"></path><path d="M247.88 260.95Q257.58 262.66 267.27 263.96 276.96 264.81 286.66 265.2 296.35 265.11 306.05 264.54 315.74 263.51 325.43 262.05 335.13 260.19 344.82 257.97 354.51 255.46 364.21 252.71 373.9 249.8 383.6 246.79 393.29 243.76 402.98 240.79 412.68 237.95 422.37 235.3 432.06 232.92 441.76 230.87 451.45 229.19 461.15 227.93 470.84 227.12 480.53 226.78 490.23 226.92 499.92 227.53 509.61 228.59 519.31 230.09 529 231.99 538.69 234.23 549.54 242.9 543.5 258.54 536.91 268.04 531.3 277.55 527 287.05 524.25 296.55 523.22 306.06 523.97 315.56 526.44 325.07 530.5 334.57 535.91 344.07 542.37 353.58 549.5 363.08 556.88 372.58 564.1 382.09 570.74 391.59 576.41 401.1 580.79 410.6 583.63 420.1 584.76 429.61 584.11 439.11 581.73 448.61 577.76 458.12 572.41 467.62 566 477.12 558.9 486.63 551.52 496.13 544.28 505.64 537.6 515.14 531.87 524.64 521.38 536.69 506.22 535.17 497.09 531.57 487.96 528.54 478.83 526.14 469.7 524.43 460.58 523.45 451.45 523.24 442.32 523.79 433.19 525.08 424.06 527.1 414.93 529.79 405.8 533.07 396.67 536.88 387.55 541.11 378.42 545.66 369.29 550.42 360.16 555.27 351.03 560.08 341.9 564.75 332.77 569.15 323.64 573.17 314.51 576.71 305.39 579.69 296.26 582.03 287.13 583.68 278 584.59 268.87 584.73 259.74 584.12 250.61 582.75 237.6 574.35 235.77 558.12 238.42 548.22 241.51 538.31 244.85 528.4 248.26 518.5 251.54 508.59 254.5 498.69 256.97 488.78 258.81 478.88 259.91 468.97 260.21 459.06 259.69 449.16 258.38 439.25 256.35 429.35 253.73 419.44 250.67 409.53 247.33 399.63 243.92 389.72 240.62 379.82 237.64 369.91 235.14 360.01 233.26 350.1 232.12 340.19 231.78 330.29 232.25 320.38 233.52 310.48 235.51 300.57 238.1 290.67 241.14 280.76 244.47 270.85 247.88 260.95" stroke-dasharray="8 3" transform="rotate(48.48, 400, 400)" opacity="0.98"></path><path d="M254.9 274.24Q263.77 275.42 272.64 276.22 281.51 276.6 290.38 276.56 299.25 276.1 308.12 275.23 316.99 273.97 325.86 272.35 334.73 270.4 343.6 268.16 352.47 265.68 361.34 263.02 370.21 260.23 379.08 257.36 387.95 254.49 396.81 251.68 405.68 248.97 414.55 246.44 423.42 244.14 432.29 242.11 441.16 240.4 450.03 239.04 458.9 238.07 467.77 237.51 476.64 237.36 485.51 237.64 494.38 238.32 503.25 239.41 512.12 240.88 520.99 242.69 531.04 250.38 526.23 264.72 521.09 273.49 517.03 282.26 514.26 291.03 512.93 299.8 513.08 308.57 514.73 317.34 517.78 326.11 522.08 334.88 527.42 343.65 533.54 352.42 540.13 361.19 546.86 369.96 553.4 378.73 559.42 387.5 564.62 396.28 568.75 405.05 571.6 413.82 573.02 422.59 572.96 431.36 571.4 440.13 568.43 448.9 564.2 457.67 558.91 466.44 552.83 475.21 546.27 483.98 539.53 492.75 532.98 501.52 526.92 510.29 515.29 521.6 500.39 520.88 491.86 518.08 483.33 515.81 466.27 513.38 449.21 512.87 432.14 515.54 415.08 519.98 406.55 523.12 398.02 526.68 389.49 530.59 380.96 534.77 372.43 539.13 363.9 543.57 355.36 547.99 346.83 552.31 338.3 556.43 329.77 560.26 321.24 563.72 312.71 566.74 295.65 570.89 278.59 573.24 261.52 572.4 244.46 569.65 246.52 560.42 249.1 551.19 252.08 541.96 255.3 532.72 258.6 523.49 261.82 514.26 264.81 505.03 267.4 495.8 269.48 486.57 270.94 477.33 271.7 468.1 271.73 458.87 271.03 449.64 269.63 440.41 267.61 431.18 265.05 421.94 262.1 412.71 258.89 403.48 255.59 394.25 252.36 385.02 249.35 375.78 246.73 366.55 244.62 357.32 243.12 348.09 242.32 338.86 242.24 329.63 242.9 320.39 244.25 311.16 246.24 301.93 248.77 292.7 251.7 283.47 254.9 274.24" stroke-dasharray="4 4" transform="rotate(52.52, 400, 400)" opacity="0.22"></path><path d="M261.76 287.03Q277.9 288.02 294.04 287.55 310.18 285.66 326.32 282.49 342.46 278.26 358.6 273.28 374.74 267.92 390.89 262.57 407.03 257.61 423.17 253.4 439.31 250.26 455.45 248.41 471.59 247.98 487.73 249 503.87 251.41 520.01 255.03 510.17 271.13 503.99 287.22 502.5 303.32 505.97 319.42 513.8 335.52 524.68 351.62 536.79 367.72 548.1 383.82 556.7 399.92 561.16 416.02 560.73 432.12 555.48 448.22 546.28 464.32 534.7 480.42 522.65 496.52 512.18 512.62 496.27 507.22 480.37 503.63 464.46 502.09 448.55 502.73 432.65 505.5 416.74 510.2 400.84 516.48 384.93 523.89 369.02 531.88 353.12 539.89 337.21 547.32 321.3 553.64 305.4 558.39 289.49 561.21 273.59 561.91 257.68 560.43 263.13 543.35 269.4 526.26 275.43 509.17 280.22 492.08 282.95 475 283.18 457.91 280.85 440.82 276.38 423.73 270.49 406.65 264.19 389.56 258.52 372.47 254.45 355.38 252.64 338.3 253.42 321.21 256.63 304.12 261.76 287.03" stroke-dasharray="10 8" transform="rotate(56.56, 400, 400)" opacity="0.17"></path><path d="M268.79 299.26Q283.4 299.34 298 298.17 312.61 295.82 327.22 292.45 341.82 288.26 356.43 283.49 371.04 278.46 385.64 273.45 400.25 268.79 414.85 264.75 429.46 261.58 444.07 259.48 458.67 258.57 473.28 258.91 487.89 260.47 502.49 263.17 495.55 277.86 492.21 292.55 492.93 307.23 497.62 321.92 505.61 336.61 515.77 351.29 526.67 365.98 536.77 380.67 544.64 395.35 549.17 410.04 549.72 424.73 546.21 439.41 539.14 454.1 529.5 468.79 518.66 483.47 508.15 498.16 493.39 494.26 478.62 492 463.86 491.51 449.09 492.82 434.33 495.86 419.56 500.43 404.8 506.26 390.03 513 375.27 520.22 360.5 527.49 345.74 534.36 330.97 540.42 316.21 545.29 301.44 548.67 282.19 542.46 283.69 518.88 289 503.19 292.9 487.5 294.84 471.82 294.54 456.13 292.04 440.44 287.7 424.76 282.13 409.07 276.12 393.38 270.51 377.69 266.1 362.01 263.52 346.32 263.12 330.63 264.96 314.95 268.79 299.26" stroke-dasharray="9 4" transform="rotate(60.599999999999994, 400, 400)" opacity="0.72"></path><path d="M276.34 310.85Q289.48 310.13 302.63 308.39 315.77 305.72 328.91 302.25 342.05 298.16 355.19 293.66 368.33 288.98 381.48 284.34 394.62 279.99 407.76 276.15 420.9 273.01 434.04 270.73 447.18 269.42 460.33 269.15 473.47 269.94 486.61 271.74 482.54 285.04 481.68 298.34 484.14 311.64 489.62 324.94 497.48 338.24 506.81 351.54 516.51 364.84 525.45 378.14 532.58 391.44 537.07 404.73 538.39 418.03 536.39 431.33 531.3 444.63 523.71 457.93 514.53 471.23 504.81 484.53 491.19 482.01 477.58 480.92 463.96 481.29 450.35 483.11 436.73 486.3 423.12 490.68 409.5 496.04 395.89 502.11 382.27 508.57 368.66 515.11 355.04 521.39 341.43 527.09 327.81 531.93 314.2 535.66 296.61 531.46 298 510.56 302.43 496.3 305.4 482.03 306.57 467.77 305.8 453.5 303.18 439.24 299.02 424.97 293.8 410.71 288.14 396.44 282.69 382.18 278.1 367.91 274.9 353.65 273.47 339.38 273.97 325.12 276.34 310.85" stroke-dasharray="9 9" transform="rotate(64.64, 400, 400)" opacity="0.67"></path><path d="M284.74 321.76Q296.48 320.39 308.23 318.22 319.97 315.35 331.72 311.89 343.47 307.98 355.21 303.79 366.96 299.48 378.7 295.23 390.45 291.22 402.19 287.61 413.94 284.55 425.68 282.16 437.43 280.55 449.17 279.77 466.05 286.32 472.33 304.7 476.02 316.64 481.89 328.57 489.38 340.51 497.78 352.44 506.3 364.38 514.13 376.31 520.52 388.25 524.86 400.19 526.75 412.12 526.01 424.06 522.69 435.99 517.13 447.93 509.85 459.86 501.53 471.8 489.1 470.5 476.66 470.37 464.23 471.42 451.79 473.6 439.36 476.81 426.92 480.94 414.48 485.81 402.05 491.22 389.61 496.95 377.18 502.76 364.74 508.42 352.31 513.69 339.87 518.36 327.43 522.23 311.35 519.66 312.19 501.35 315.63 488.52 317.67 475.69 318.13 462.86 316.97 450.04 314.29 437.21 310.34 424.38 305.51 411.55 300.25 398.73 295.06 385.9 290.43 373.07 286.81 360.24 284.53 347.42 283.82 334.59 284.74 321.76" stroke-dasharray="3 9" transform="rotate(68.68, 400, 400)" opacity="0.73"></path><path d="M294.25 331.96Q304.66 330.11 315.07 327.68 325.48 324.73 335.89 321.38 346.3 317.72 356.71 313.87 367.12 309.96 377.53 306.12 387.94 302.47 398.35 299.13 408.76 296.2 419.17 293.79 429.58 291.97 439.99 290.79 455.91 295.71 464.05 311.71 468.47 322.3 474.35 332.89 481.26 343.49 488.68 354.08 496.05 364.67 502.81 375.26 508.46 385.85 512.57 396.44 514.83 407.04 515.08 417.63 513.29 428.22 509.6 438.81 504.29 449.4 497.75 460 486.54 459.71 475.33 460.34 464.11 461.87 452.9 464.25 441.69 467.4 430.48 471.21 419.27 475.57 408.06 480.33 396.84 485.34 385.63 490.44 374.42 495.46 363.21 500.23 352 504.61 340.78 508.45 326.1 507.14 326.09 491.28 328.5 479.9 329.67 468.52 329.51 457.14 328.03 445.76 325.35 434.38 321.66 423 317.25 411.62 312.44 400.24 307.6 388.86 303.09 377.48 299.25 366.1 296.37 354.72 294.66 343.34 294.25 331.96" stroke-dasharray="1 4" transform="rotate(72.72, 400, 400)" opacity="0.72"></path><path d="M305.08 341.46Q314.2 339.32 323.32 336.77 332.44 333.88 341.56 330.72 350.68 327.37 359.8 323.91 368.92 320.43 378.04 317.01 387.16 313.74 396.28 310.7 405.4 307.96 414.52 305.6 423.64 303.67 432.76 302.22 447.51 305.72 456.66 319.42 461.35 328.69 466.93 337.95 473.1 347.22 479.49 356.48 485.74 365.75 491.49 375.01 496.4 384.27 500.19 393.54 502.64 402.8 503.62 412.07 503.06 421.33 501 430.6 490.28 444.74 473.06 450.8 463.13 452.62 453.19 455.06 443.26 458.04 433.33 461.48 423.39 465.32 413.46 469.44 403.52 473.76 393.59 478.15 383.65 482.51 373.72 486.74 363.78 490.72 353.85 494.37 340.54 493.97 339.54 480.43 340.96 470.5 341.35 460.58 340.67 450.65 338.98 440.72 336.37 430.8 332.98 420.87 329.02 410.94 324.72 401.02 320.31 391.09 316.06 381.16 312.21 371.24 308.98 361.31 306.56 351.38 305.08 341.46" stroke-dasharray="9 10" transform="rotate(76.76, 400, 400)" opacity="0.65"></path><path d="M317.33 350.27Q333.05 345.52 348.77 339.93 364.49 333.91 380.21 327.9 395.93 322.32 411.65 317.6 427.37 314.07 443.09 311.99 449.98 327.88 459.56 343.78 470.21 359.67 480.17 375.57 487.74 391.46 491.66 407.36 491.28 423.26 486.66 439.15 469.46 441.69 452.25 446 435.05 451.76 417.85 458.56 400.64 465.89 383.44 473.24 366.24 480.06 349.03 485.85 352.4 468.91 352.67 451.96 349.82 435.01 344.31 418.06 337.07 401.12 329.31 384.17 322.34 367.22 317.33 350.27" stroke-dasharray="10 3" transform="rotate(80.80000000000001, 400, 400)" opacity="0.35"></path><path d="M330.98 358.46Q344.2 353.97 357.42 349.03 370.64 343.88 383.86 338.78 397.08 334.01 410.3 329.78 423.52 326.33 436.74 323.82 443.78 337.1 452.14 350.37 460.83 363.65 468.84 376.92 475.23 390.19 479.25 403.47 480.44 416.74 478.64 430.02 464.2 432.98 449.77 437.05 435.33 442.03 420.89 447.67 406.46 453.68 392.02 459.75 371.06 461.21 363.62 442.78 360.53 428.72 355.63 414.67 349.48 400.62 342.81 386.57 336.39 372.51 330.98 358.46" stroke-dasharray="4 9" transform="rotate(84.84, 400, 400)" opacity="0.90"></path><path d="M345.91 366.09Q356.61 362.15 367.31 358.01 378.02 353.81 388.72 349.67 399.43 345.74 410.13 342.15 420.83 339 431.54 336.4 437.85 347.06 444.62 357.71 451.35 368.37 457.52 379.02 462.68 389.67 466.43 400.33 462.82 417.79 445.55 428.19 433.96 432.29 422.37 436.78 410.78 441.5 399.2 446.3 381.72 447.68 374.16 433.16 371.12 421.98 366.95 410.8 361.95 399.63 356.5 388.45 351.02 377.27 345.91 366.09" stroke-dasharray="6 9" transform="rotate(88.88, 400, 400)" opacity="0.73"></path><path d="M361.87 373.26Q378.15 366.91 394.43 360.56 410.71 354.68 426.99 349.7 436.93 365.75 446.2 381.8 453.26 397.85 456.92 413.9 439.54 419.4 422.17 425.89 404.79 432.9 387.42 439.91 384.3 423.25 378.27 406.59 370.35 389.92 361.87 373.26" stroke-dasharray="5 4" transform="rotate(92.92, 400, 400)" opacity="0.09"></path><path d="M378.53 380.08Q389.55 375.73 400.56 371.45 411.58 367.38 422.59 363.66 429 374.41 434.88 385.17 435.81 403.29 420.3 415 401.39 416.38 389.59 402.15 384.3 391.12 378.53 380.08" stroke-dasharray="6 9" transform="rotate(96.96, 400, 400)" opacity="0.74"></path></g></svg>