<?xml version="1.0" ?><svg xmlns="http://www.w3.org/2000/svg" width="57.750698mm" height="99.200439mm" viewBox="0 0 57.750699 99.200441">
    <path d="M 30.504598 0.66817627 C 29.823193 0.65493829 29.068194 0.68191641 28.230318 0.75964355 C 21.527338 1.3814627 19.427283 4.0553055 17.085262 3.7754801 C 14.743271 3.4956538 13.613084 4.086622 12.765112 5.5789876 C 11.91714 7.0713542 10.099707 9.8695613 9.7766642 11.983765 C 9.4536208 14.097968 10.584367 17.673393 10.584367 19.165755 C 10.584367 20.658119 12.038025 19.321301 12.038025 19.321301 C 12.066845 19.275257 12.09229 19.231236 12.120707 19.185392 C 12.30787 21.268304 12.467946 25.129839 12.652458 29.15636 C 12.533056 29.504624 12.52293 29.928504 12.709819 30.444137 C 12.711244 30.448068 12.713038 30.451075 12.714469 30.454989 C 12.943055 35.250192 13.22073 39.880558 13.652913 41.302389 C 14.541261 44.224944 23.788135 49.137853 27.624154 49.790759 C 31.460199 50.443665 40.021063 45.624185 41.918888 43.136902 C 43.816723 40.649617 45.027828 26.410275 45.270105 24.140645 C 45.427175 22.66922 45.039748 21.176488 44.550769 19.966223 C 44.941536 20.201471 45.305901 20.119983 45.47216 19.258773 C 45.916359 16.958058 44.987648 10.27392 44.583842 9.0924683 C 44.180036 7.9110161 37.638629 4.1178992 36.992574 3.4338989 C 36.427254 2.8353979 35.274431 0.76084215 30.504598 0.66817627 z M 15.801619 13.715959 C 15.457095 14.099634 15.082334 14.542419 14.695227 15.002702 C 15.035458 14.535828 15.398096 14.105752 15.801619 13.715959 z M 28.465963 52.100696 C 27.373116 52.108926 26.363073 52.142071 25.54366 52.185962 C 22.266008 52.361537 20.527112 53.524425 19.529557 53.897485 C 18.532028 54.270557 14.228589 60.481063 14.228589 60.481063 L 5.972762 65.923108 C 3.1803935 69.975813 4.1013245 70.268312 3.5212321 73.428593 C 3.5212321 73.428593 6.329493 96.932525 7.0135254 97.503092 C 7.6975538 98.07368 21.905953 98.866575 30.712854 99.173792 C 39.519753 99.481017 52.747685 97.016817 52.747685 97.016817 L 50.909554 80.648824 L 51.411332 66.764917 C 51.411332 66.764917 43.499415 62.741621 42.843896 60.744613 C 42.188368 58.747606 40.107806 54.117312 37.628194 53.063944 C 35.768485 52.273918 31.744504 52.076006 28.465963 52.100696 z" fill="#9bafff"/>
    <path d="M 25.095259,4.815239e-4 C 22.690711,0.01637018 21.44039,0.42378074 19.903382,1.4668205 c -0.940992,0.6385603 -2.197399,1.072427 -3.106463,1.072427 -1.745339,0 -3.349751,0.713432 -2.973479,1.3222737 0.139968,0.2264572 1.608696,0.4115425 3.263624,0.4115425 2.270724,0 3.008741,-0.1465567 3.008741,-0.5984234 0,-0.7874702 3.173835,-1.5690986 6.372604,-1.5690986 1.386216,0 3.170656,-0.186181 3.965311,-0.4140604 0.948085,-0.2719193 1.617784,-0.263819 1.947898,0.023677 0.276734,0.2409851 1.673374,0.9974822 3.103944,1.6814285 2.955984,1.4131841 3.251533,1.4905366 3.251533,0.8482702 0,-1.7280769 -3.148786,-3.86496405 -5.728844,-3.88773747 C 32.224867,0.3501987 29.943058,0.23742334 27.93777,0.1062649 26.826359,0.03358647 25.89678,-0.00481145 25.095259,4.8347343e-4 Z M 40.276472,3.9733481 c -0.35151,-0.044449 -0.581896,0.036359 -0.777238,0.2317132 -0.390725,0.3906767 0.0039,0.9997144 1.688984,2.6072724 2.327659,2.2200774 2.793918,3.4140953 3.401138,8.7154193 0.263654,2.30175 0.247999,2.347369 -0.549056,1.626024 -0.956916,-0.86599 -2.271211,-0.982562 -2.263734,-0.20048 0.0029,0.298054 0.500025,1.407395 1.104661,2.465219 1.039206,1.818023 1.074717,2.083977 0.645275,4.85186 -0.24991,1.610583 -0.333477,4.01366 -0.454357,5.327379 L 42.30598,37.92582 c -0.394594,4.288808 -3.144288,6.316561 -9.854847,9.162727 -2.996055,1.270751 -3.772248,1.43341 -5.702149,1.19433 -2.521101,-0.312285 -7.472947,-2.53817 -9.554627,-4.294744 -2.254258,-1.902194 -3.160579,-5.068882 -3.670129,-12.825813 -0.243201,-3.70196 -0.376172,-8.340093 -0.295182,-10.307187 0.123648,-3.004701 0.04012,-3.576488 -0.524376,-3.57643 -0.369578,3.9e-5 -0.886495,0.214575 -1.148489,0.476514 -0.701309,0.701313 -1.139121,-1.771752 -0.778253,-4.395486 0.362296,-2.634271 -0.376357,-2.917362 -1.3751656,-0.526899 -0.8351342,1.998793 -0.6047915,7.363799 0.3808151,8.868055 0.4979425,0.759975 0.7131125,2.804505 0.8810125,8.370877 0.40164,13.317221 2.212201,16.127837 12.89935,20.022001 4.212259,1.534893 6.937799,1.255409 12.205218,-1.25075 6.696693,-3.186144 9.053488,-6.672788 9.705245,-10.004445 0.467633,-2.39058 0.616675,-4.661274 0.531929,-8.068651 -0.0771,-3.100082 -0.104788,-8.370867 0.236243,-9.272533 0.201241,-0.532114 0.47474,-2.741369 0.608,-4.909294 C 47.265259,9.8400131 45.779767,6.2974797 41.778584,4.4931909 41.100421,4.1873683 40.627972,4.0177983 40.276472,3.9733481 Z M 14.447553,4.9253858 c -0.294302,-0.00741 -0.749907,0.092447 -1.367609,0.307775 -1.235959,0.4308624 -3.388548,3.0517913 -3.388548,4.1260011 0,0.8750071 0.347514,0.6842941 3.080773,-1.6930195 1.990348,-1.7311483 2.558282,-2.7186031 1.675384,-2.7407566 z m 12.207738,2.4254301 c -0.673625,0.07067 -0.435761,0.7040625 0.736443,1.7514468 1.415024,1.2642893 2.250796,1.4291023 2.558916,0.504733 C 30.168369,8.9538646 28.907165,7.7932419 27.632011,7.4732171 27.205614,7.3661977 26.879845,7.3272402 26.655291,7.3508159 Z m -4.758676,0.172777 c -0.315445,-0.014914 -0.620366,0.01004 -0.901664,0.083635 -1.098831,0.2873507 -0.967737,1.1485356 0.209549,1.3766791 0.451046,0.087436 1.49541,0.6179519 2.320653,1.178714 1.137723,0.773144 1.640706,0.90272 2.081385,0.536969 1.22314,-1.0151198 -1.501972,-3.0718531 -3.709923,-3.1759774 z m 9.690632,0.3782963 c -0.101026,0.021347 -0.186825,0.066479 -0.256395,0.1359991 -0.614817,0.6148326 -0.119752,1.5754044 1.238655,2.4022577 2.188711,1.332269 2.49051,-0.6630539 0.315836,-2.0879254 -0.369323,-0.2419755 -0.688454,-0.389857 -0.950023,-0.442777 -0.130797,-0.026416 -0.247048,-0.028463 -0.348073,-0.0078 z m 6.204361,1.8980319 v 4.971e-4 c -0.0776,-0.026514 -0.145343,-0.023102 -0.208037,0.00877 -0.08362,0.042402 -0.157851,0.1344395 -0.233728,0.2699898 -0.581501,1.039099 0.05976,2.764403 1.467855,3.9492 1.387168,1.16727 2.901113,1.395141 3.734098,0.562146 0.813538,-0.813538 0.634006,-1.108814 -1.001912,-1.648677 -0.837088,-0.276297 -2.040951,-1.18274 -2.67527,-2.0144 C 38.344788,10.232824 38.02441,9.879686 37.791608,9.8001258 Z M 20.251455,9.9087243 c -0.284003,-0.015304 -0.581932,-0.013939 -0.876983,0.00292 -1.1802,0.066479 -2.313098,0.3811427 -2.313098,0.8825227 0,0.197058 0.536669,0.439151 1.192313,0.538479 3.253033,0.492802 4.144017,0.297401 3.716975,-0.815527 -0.14124,-0.368071 -0.867204,-0.562088 -1.719207,-0.6079994 z m -3.648973,2.6012267 c -0.737849,0 -3.876152,2.691334 -3.876152,3.324073 0,1.049675 1.798205,0.600543 3.077247,-0.768689 1.269826,-1.359358 1.643801,-2.555384 0.798905,-2.555384 z m 5.392863,10.986706 c -0.097,-0.002 -0.199626,0.0097 -0.307271,0.03675 -0.742873,0.186765 -1.410165,1.22407 -0.928866,2.0028 0.507741,0.821551 2.102766,0.683417 2.25114,-0.36117 0.06788,-0.959753 -0.336041,-1.662733 -1.015003,-1.678408 z m 12.113541,0.467965 c -0.08144,-0.0088 -0.162781,-0.0068 -0.241787,0.0049 -0.210678,0.03188 -0.657015,0.24297 -0.825602,0.411536 -0.254064,0.254063 -0.246634,1.14102 -0.103264,1.514696 0.395216,1.0298 2.327202,0.788516 2.327202,-0.280566 0,-1.030931 -0.586452,-1.590952 -1.156549,-1.650705 z m -5.631124,4.813074 c -0.614823,0.0078 -0.993784,0.799092 -0.530925,1.545927 1.084852,1.750356 1.815733,2.575133 3.293344,3.035436 1.225333,0.381708 1.805532,-0.812398 1.208433,-1.562547 -0.597125,-0.75013 -2.218703,-1.802417 -3.299892,-2.734711 -0.234772,-0.202439 -0.466002,-0.286649 -0.67096,-0.284105 z m -7.988046,6.646635 c -0.485671,0.01355 -0.795434,0.04191 -0.869931,0.08812 -0.528805,0.327238 1.016502,3.434309 2.278845,4.58187 0.558207,0.507472 1.600314,1.231303 2.315617,1.608391 2.554933,1.346939 6.851312,0.762304 9.646303,-1.312706 1.584416,-1.176267 2.972642,-3.5123 2.417369,-4.067565 C 35.964337,36.00885 27.086261,35.502694 22.41545,35.4248 21.636979,35.41184 20.975389,35.41067 20.489716,35.424303 Z m 2.411324,1.081492 c 0.375356,0.01521 2.886779,0.379163 5.635657,0.543519 2.748826,0.164325 4.997945,0.446607 4.997945,0.627641 0,0.181033 -0.912603,0.640459 -2.027991,1.020539 -3.057152,1.041672 -5.699668,0.899961 -7.625366,-0.408514 -1.585571,-1.077466 -2.437301,-1.842393 -0.980245,-1.783185 z M 36.20891,51.26744 c -1.388689,-0.04513 -0.832064,1.068877 1.750942,2.699453 1.916986,1.210151 2.611613,2.437876 3.79253,6.699517 l 0.880514,3.176484 -1.18929,1.723744 c -1.496059,2.168246 -3.766717,4.600508 -4.294749,4.600508 -0.351216,0 -4.91483,-6.195515 -4.91483,-6.672321 0,-0.09972 0.863717,-0.687589 1.919187,-1.306155 2.622174,-1.536677 3.716472,-3.037385 3.716472,-5.096175 0,-1.990108 -0.556746,-2.303125 -5.383796,-3.025864 -2.968176,-0.444424 -5.666474,-0.122869 -9.680557,1.152513 -0.7284,0.231458 -0.975209,0.137549 -0.975209,-0.369728 0,-0.373608 0.319665,-0.858075 0.710754,-1.076959 1.086497,-0.608029 0.288221,-1.379194 -1.428056,-1.379194 -1.947104,0 -3.718912,1.041818 -4.706288,2.76796 -2.147338,3.753876 -3.111522,4.870986 -3.806135,5.019598 -1.234143,0.264044 -3.3110796,1.097907 -5.483533,2.962904 C 5.1754629,64.595938 3.7749351,66.29043 3.1575993,68.632301 1.7396301,74.011382 1.2154155,79.117958 0.50838379,85.185038 -0.45446114,93.447267 0.23874642,96.006852 0.27844955,97.343381 0.3216511,98.797671 3.0560581,98.955914 3.0218946,97.229051 2.9877973,95.505423 3.207943,93.696894 3.2462512,90.903922 3.2629879,89.692582 3.181868,88.462127 3.4155025,86.088332 4.3825798,94.974957 5.2626097,97.222715 5.762853,97.963068 6.1238784,98.497375 6.99917,99.122803 7.5994289,97.805399 8.1476061,96.602238 7.1606533,92.62132 6.3980484,85.391678 6.0553135,82.142457 5.5984619,69.99198 5.8560424,68.87106 c 0.353508,-1.538373 0.768359,-1.942091 1.9917223,-3.299889 1.5657621,-1.73782 5.2744883,-4.103329 5.2744883,-4.103329 l 0.729895,1.410922 c 1.060585,2.050973 5.324463,6.375524 7.261173,7.364442 0.917135,0.468336 2.266199,0.868184 2.998163,0.889073 1.370374,0.03899 1.425386,-0.0068 4.69722,-3.961793 l 1.560032,-1.885428 1.571617,2.587122 c 1.953836,3.216342 3.601605,4.896192 4.80401,4.896192 1.615566,0 3.882468,-1.971636 5.89407,-5.126393 1.072943,-1.682686 2.146226,-3.063674 2.384625,-3.069191 0.75203,-0.01706 5.073726,2.73164 5.135965,3.26161 0.658814,5.610227 -0.710916,13.521717 -0.3662,19.456316 0.404527,4.296673 0.921318,10.195304 2.819837,10.195304 2.30562,-0.347065 0.366658,-5.87855 0.227988,-8.704295 -0.169619,-3.586148 -0.0097,-3.696667 0.205334,-4.980159 1.519814,12.149317 1.053428,9.976733 1.811385,13.077166 0.458812,1.876782 3.108699,1.904904 2.879288,-0.391387 -0.229401,-2.296292 -1.21942,-13.310515 -2.251764,-20.044811 -0.730985,-4.768586 -1.506595,-7.374355 -2.496956,-9.220666 -0.175896,-0.499625 -0.372263,-0.976977 -0.600942,-1.417473 -1.002711,-1.931535 -5.606942,-3.345226 -5.606942,-3.345226 -2.155009,-1.0429 -2.386623,-1.295832 -2.649585,-2.894904 C 43.435049,55.33517 41.546404,52.820034 38.242941,51.722801 37.350713,51.426453 36.6718,51.28247 36.208906,51.26744 Z m -16.895388,3.649975 0.635194,1.230601 c 1.858952,3.600643 8.23253,7.645847 8.939581,5.673938 0.345356,-0.963106 -0.528815,-2.015442 -2.972976,-3.578955 -1.315961,-0.841835 -2.288457,-1.699355 -2.160973,-1.905586 0.441168,-0.713839 4.946674,-0.959948 8.547179,-0.466951 1.988782,0.2723 3.680994,0.559885 3.760295,0.639221 0.313588,0.313592 -0.975365,2.16154 -2.245599,3.219306 -0.738303,0.614803 -1.688527,1.459115 -2.112113,1.876363 -0.423579,0.417277 -1.111564,0.760628 -1.5288,0.760628 -0.457629,9.74e-4 -1.704974,1.369115 -3.143234,3.446981 -1.311339,1.894523 -2.497024,3.453999 -2.634978,3.465609 -0.137954,0.01189 -1.16422,-0.583455 -2.280355,-1.322775 -2.490431,-1.649594 -6.355983,-5.908466 -6.355983,-7.002765 0,-0.442349 0.799137,-1.981082 1.776129,-3.419776 z m 10.009992,14.891076 c -0.100872,0.0078 -0.203059,0.02924 -0.30425,0.06804 -0.389613,0.14948 -0.564294,0.538528 -0.416075,0.924837 0.29587,0.771019 1.278234,0.883722 1.703593,0.19545 0.305954,-0.495034 -0.116042,-1.052521 -0.687582,-1.169142 -0.09525,-0.0194 -0.194815,-0.02651 -0.295686,-0.0191 z m 0.341524,6.86122 c -0.867205,0 -1.214578,0.840588 -0.600941,1.454251 0.464638,0.464592 1.20481,0.06648 1.359548,-0.731415 0.09452,-0.487314 -0.152605,-0.722836 -0.758607,-0.722836 z m 0.643759,6.06936 c -0.912313,0 -1.263153,0.809259 -0.663907,1.531316 0.285987,0.344569 0.693255,0.520037 0.904687,0.389379 0.628176,-0.388229 0.435986,-1.920695 -0.24078,-1.920695 z m 0.46544,7.274013 c -0.805358,0 -1.291382,0.706568 -0.910228,1.323282 0.392121,0.634474 1.257668,0.270253 1.426545,-0.600445 0.08109,-0.418145 -0.136498,-0.722837 -0.516317,-0.722837 z m -0.243802,6.215683 c -0.357634,0 -0.650307,0.292731 -0.650307,0.650304 0,0.357641 0.292673,0.650314 0.650307,0.650314 0.357664,0 0.650307,-0.292673 0.650307,-0.650314 0,-0.357573 -0.292643,-0.650304 -0.650307,-0.650304 z" fill="#75e0d5"/>
</svg>