<svg xmlns="http://www.w3.org/2000/svg" version="1.1" xmlns:xlink="http://www.w3.org/1999/xlink" xmlns:svgjs="http://svgjs.dev/svgjs" viewBox="0 0 2400 800"><defs><linearGradient x1="50%" y1="0%" x2="50%" y2="100%" id="sssurf-grad"><stop stop-color="hsl(265, 55%, 30%)" stop-opacity="1" offset="0%"></stop><stop stop-color="hsl(265, 55%, 60%)" stop-opacity="1" offset="100%"></stop></linearGradient></defs><g fill="url(#sssurf-grad)" transform="matrix(1,0,0,1,0,-91.99813842773438)"><path d="M 0 340.26472225334675 Q 450 628.1951340844993 600 317.4295641033682 Q 1050 466.0276656168519 1200 335.276529275455 Q 1650 614.5256020932926 1800 307.0937391620315 Q 2250 559.0911307676407 2400 303.99631149256766 L 2400 800 L 0 800 L 0 312.04276851545546 Z" transform="matrix(1,0,0,1,0,35)" opacity="0.05"></path><path d="M 0 340.26472225334675 Q 450 628.1951340844993 600 317.4295641033682 Q 1050 466.0276656168519 1200 335.276529275455 Q 1650 614.5256020932926 1800 307.0937391620315 Q 2250 559.0911307676407 2400 303.99631149256766 L 2400 800 L 0 800 L 0 312.04276851545546 Z" transform="matrix(1,0,0,1,0,70)" opacity="0.21"></path><path d="M 0 340.26472225334675 Q 450 628.1951340844993 600 317.4295641033682 Q 1050 466.0276656168519 1200 335.276529275455 Q 1650 614.5256020932926 1800 307.0937391620315 Q 2250 559.0911307676407 2400 303.99631149256766 L 2400 800 L 0 800 L 0 312.04276851545546 Z" transform="matrix(1,0,0,1,0,105)" opacity="0.37"></path><path d="M 0 340.26472225334675 Q 450 628.1951340844993 600 317.4295641033682 Q 1050 466.0276656168519 1200 335.276529275455 Q 1650 614.5256020932926 1800 307.0937391620315 Q 2250 559.0911307676407 2400 303.99631149256766 L 2400 800 L 0 800 L 0 312.04276851545546 Z" transform="matrix(1,0,0,1,0,140)" opacity="0.53"></path><path d="M 0 340.26472225334675 Q 450 628.1951340844993 600 317.4295641033682 Q 1050 466.0276656168519 1200 335.276529275455 Q 1650 614.5256020932926 1800 307.0937391620315 Q 2250 559.0911307676407 2400 303.99631149256766 L 2400 800 L 0 800 L 0 312.04276851545546 Z" transform="matrix(1,0,0,1,0,175)" opacity="0.68"></path><path d="M 0 340.26472225334675 Q 450 628.1951340844993 600 317.4295641033682 Q 1050 466.0276656168519 1200 335.276529275455 Q 1650 614.5256020932926 1800 307.0937391620315 Q 2250 559.0911307676407 2400 303.99631149256766 L 2400 800 L 0 800 L 0 312.04276851545546 Z" transform="matrix(1,0,0,1,0,210)" opacity="0.84"></path><path d="M 0 340.26472225334675 Q 450 628.1951340844993 600 317.4295641033682 Q 1050 466.0276656168519 1200 335.276529275455 Q 1650 614.5256020932926 1800 307.0937391620315 Q 2250 559.0911307676407 2400 303.99631149256766 L 2400 800 L 0 800 L 0 312.04276851545546 Z" transform="matrix(1,0,0,1,0,245)" opacity="1"></path></g></svg>